<mxfile host="app.diagrams.net" modified="2020-10-20T04:13:24.439Z" agent="5.0 (Windows NT 10.0; WOW64) AppleWebKit/537.36 (KHTML, like Gecko) Chrome/86.0.4240.75 Safari/537.36" etag="giI_l6pEBirrTkCpbC-D" version="13.6.6" type="github" pages="3">
  <diagram id="EkzYCUThgYBck-13jO8J" name="Page-1">
    <mxGraphModel dx="2216" dy="802" grid="1" gridSize="10" guides="1" tooltips="1" connect="1" arrows="1" fold="1" page="1" pageScale="1" pageWidth="827" pageHeight="1169" math="0" shadow="0">
      <root>
        <mxCell id="0" />
        <mxCell id="1" parent="0" />
        <mxCell id="CGDWc4YNStQpTB60_EJw-1" value="线索批处理服务" style="rounded=1;whiteSpace=wrap;html=1;absoluteArcSize=1;arcSize=14;strokeWidth=2;" vertex="1" parent="1">
          <mxGeometry x="230" y="660" width="100" height="100" as="geometry" />
        </mxCell>
        <mxCell id="CGDWc4YNStQpTB60_EJw-2" value="管理员后台-API" style="rounded=1;whiteSpace=wrap;html=1;absoluteArcSize=1;arcSize=14;strokeWidth=2;" vertex="1" parent="1">
          <mxGeometry x="-10" y="260" width="100" height="100" as="geometry" />
        </mxCell>
        <mxCell id="CGDWc4YNStQpTB60_EJw-3" value="" style="endArrow=none;dashed=1;html=1;dashPattern=1 3;strokeWidth=2;" edge="1" parent="1">
          <mxGeometry width="50" height="50" relative="1" as="geometry">
            <mxPoint x="420" y="1000" as="sourcePoint" />
            <mxPoint x="420" y="20" as="targetPoint" />
          </mxGeometry>
        </mxCell>
        <mxCell id="CGDWc4YNStQpTB60_EJw-4" value="定时任务调度服务" style="rounded=1;whiteSpace=wrap;html=1;absoluteArcSize=1;arcSize=14;strokeWidth=2;" vertex="1" parent="1">
          <mxGeometry x="230" y="100" width="100" height="100" as="geometry" />
        </mxCell>
        <mxCell id="CGDWc4YNStQpTB60_EJw-5" value="短信批处理服务" style="rounded=1;whiteSpace=wrap;html=1;absoluteArcSize=1;arcSize=14;strokeWidth=2;" vertex="1" parent="1">
          <mxGeometry x="230" y="780" width="100" height="100" as="geometry" />
        </mxCell>
        <mxCell id="CGDWc4YNStQpTB60_EJw-6" value="" style="endArrow=none;dashed=1;html=1;dashPattern=1 3;strokeWidth=2;" edge="1" parent="1">
          <mxGeometry width="50" height="50" relative="1" as="geometry">
            <mxPoint x="-60" y="240" as="sourcePoint" />
            <mxPoint x="790" y="240" as="targetPoint" />
          </mxGeometry>
        </mxCell>
        <mxCell id="CGDWc4YNStQpTB60_EJw-7" value="" style="endArrow=none;dashed=1;html=1;dashPattern=1 3;strokeWidth=2;" edge="1" parent="1">
          <mxGeometry width="50" height="50" relative="1" as="geometry">
            <mxPoint x="160" y="1000" as="sourcePoint" />
            <mxPoint x="160" y="30" as="targetPoint" />
          </mxGeometry>
        </mxCell>
        <mxCell id="CGDWc4YNStQpTB60_EJw-10" value="chassis" style="rounded=1;whiteSpace=wrap;html=1;absoluteArcSize=1;arcSize=14;strokeWidth=2;" vertex="1" parent="1">
          <mxGeometry x="240" y="380" width="100" height="100" as="geometry" />
        </mxCell>
        <mxCell id="CGDWc4YNStQpTB60_EJw-11" value="feedback" style="rounded=1;whiteSpace=wrap;html=1;absoluteArcSize=1;arcSize=14;strokeWidth=2;" vertex="1" parent="1">
          <mxGeometry x="640" y="380" width="100" height="100" as="geometry" />
        </mxCell>
        <mxCell id="CGDWc4YNStQpTB60_EJw-12" value="AI批处理服务" style="rounded=1;whiteSpace=wrap;html=1;absoluteArcSize=1;arcSize=14;strokeWidth=2;" vertex="1" parent="1">
          <mxGeometry x="230" y="900" width="100" height="100" as="geometry" />
        </mxCell>
        <mxCell id="CGDWc4YNStQpTB60_EJw-13" value="" style="endArrow=none;dashed=1;html=1;dashPattern=1 3;strokeWidth=2;" edge="1" parent="1">
          <mxGeometry width="50" height="50" relative="1" as="geometry">
            <mxPoint x="600" y="1000" as="sourcePoint" />
            <mxPoint x="600" y="70" as="targetPoint" />
          </mxGeometry>
        </mxCell>
        <mxCell id="CGDWc4YNStQpTB60_EJw-14" value="cmpp" style="rounded=1;whiteSpace=wrap;html=1;absoluteArcSize=1;arcSize=14;strokeWidth=2;" vertex="1" parent="1">
          <mxGeometry x="460" y="380" width="100" height="100" as="geometry" />
        </mxCell>
        <mxCell id="6iSSysgSkMoI0F1SGPlJ-1" value="全用户后台-API" style="rounded=1;whiteSpace=wrap;html=1;absoluteArcSize=1;arcSize=14;strokeWidth=2;" vertex="1" parent="1">
          <mxGeometry x="-10" y="380" width="100" height="100" as="geometry" />
        </mxCell>
        <mxCell id="6iSSysgSkMoI0F1SGPlJ-2" value="SMS-API" style="rounded=1;whiteSpace=wrap;html=1;absoluteArcSize=1;arcSize=14;strokeWidth=2;" vertex="1" parent="1">
          <mxGeometry x="-10" y="510" width="100" height="100" as="geometry" />
        </mxCell>
        <mxCell id="6iSSysgSkMoI0F1SGPlJ-4" value="" style="endArrow=none;dashed=1;html=1;dashPattern=1 3;strokeWidth=2;" edge="1" parent="1">
          <mxGeometry width="50" height="50" relative="1" as="geometry">
            <mxPoint x="-80" y="640" as="sourcePoint" />
            <mxPoint x="790" y="640" as="targetPoint" />
          </mxGeometry>
        </mxCell>
      </root>
    </mxGraphModel>
  </diagram>
  <diagram id="avUzxxqi55pI1JrDbDcK" name="Page-2">
    <mxGraphModel dx="2216" dy="1971" grid="1" gridSize="10" guides="1" tooltips="1" connect="1" arrows="1" fold="1" page="1" pageScale="1" pageWidth="827" pageHeight="1169" math="0" shadow="0">
      <root>
        <mxCell id="A_0122c7jLnbs0eLwg73-0" />
        <mxCell id="A_0122c7jLnbs0eLwg73-1" parent="A_0122c7jLnbs0eLwg73-0" />
        <mxCell id="DYxi66ldMMoiw-QNB0oQ-4" value="" style="edgeStyle=orthogonalEdgeStyle;rounded=0;orthogonalLoop=1;jettySize=auto;html=1;" edge="1" parent="A_0122c7jLnbs0eLwg73-1" source="rL_iFx3MPXWAjD2izpBM-0" target="DYxi66ldMMoiw-QNB0oQ-3">
          <mxGeometry relative="1" as="geometry" />
        </mxCell>
        <mxCell id="EckiXAOUwW9-11eRYovG-2" style="edgeStyle=orthogonalEdgeStyle;rounded=0;orthogonalLoop=1;jettySize=auto;html=1;entryX=0;entryY=0.5;entryDx=0;entryDy=0;entryPerimeter=0;" edge="1" parent="A_0122c7jLnbs0eLwg73-1" source="rL_iFx3MPXWAjD2izpBM-0" target="EckiXAOUwW9-11eRYovG-1">
          <mxGeometry relative="1" as="geometry" />
        </mxCell>
        <mxCell id="rL_iFx3MPXWAjD2izpBM-0" value="管理员后台-API" style="rounded=1;whiteSpace=wrap;html=1;absoluteArcSize=1;arcSize=14;strokeWidth=2;" vertex="1" parent="A_0122c7jLnbs0eLwg73-1">
          <mxGeometry x="60" y="300" width="100" height="100" as="geometry" />
        </mxCell>
        <mxCell id="rL_iFx3MPXWAjD2izpBM-1" value="短信批处理服务" style="rounded=1;whiteSpace=wrap;html=1;absoluteArcSize=1;arcSize=14;strokeWidth=2;" vertex="1" parent="A_0122c7jLnbs0eLwg73-1">
          <mxGeometry x="396" y="380" width="100" height="100" as="geometry" />
        </mxCell>
        <mxCell id="DYxi66ldMMoiw-QNB0oQ-0" value="feedback" style="rounded=1;whiteSpace=wrap;html=1;absoluteArcSize=1;arcSize=14;strokeWidth=2;" vertex="1" parent="A_0122c7jLnbs0eLwg73-1">
          <mxGeometry x="630" y="610" width="100" height="100" as="geometry" />
        </mxCell>
        <mxCell id="DYxi66ldMMoiw-QNB0oQ-1" value="mysql" style="strokeWidth=2;html=1;shape=mxgraph.flowchart.database;whiteSpace=wrap;" vertex="1" parent="A_0122c7jLnbs0eLwg73-1">
          <mxGeometry x="80" y="490" width="60" height="60" as="geometry" />
        </mxCell>
        <mxCell id="DYxi66ldMMoiw-QNB0oQ-2" value="" style="endArrow=none;dashed=1;html=1;dashPattern=1 3;strokeWidth=2;entryX=0.5;entryY=1;entryDx=0;entryDy=0;exitX=0.5;exitY=0;exitDx=0;exitDy=0;exitPerimeter=0;" edge="1" parent="A_0122c7jLnbs0eLwg73-1" source="DYxi66ldMMoiw-QNB0oQ-1" target="rL_iFx3MPXWAjD2izpBM-0">
          <mxGeometry width="50" height="50" relative="1" as="geometry">
            <mxPoint x="50" y="470" as="sourcePoint" />
            <mxPoint x="100" y="420" as="targetPoint" />
          </mxGeometry>
        </mxCell>
        <mxCell id="EckiXAOUwW9-11eRYovG-6" value="" style="edgeStyle=orthogonalEdgeStyle;rounded=0;orthogonalLoop=1;jettySize=auto;html=1;" edge="1" parent="A_0122c7jLnbs0eLwg73-1" source="DYxi66ldMMoiw-QNB0oQ-3" target="rL_iFx3MPXWAjD2izpBM-1">
          <mxGeometry relative="1" as="geometry" />
        </mxCell>
        <mxCell id="DYxi66ldMMoiw-QNB0oQ-3" value="sms" style="strokeWidth=2;html=1;shape=mxgraph.flowchart.direct_data;whiteSpace=wrap;" vertex="1" parent="A_0122c7jLnbs0eLwg73-1">
          <mxGeometry x="230" y="400" width="100" height="60" as="geometry" />
        </mxCell>
        <mxCell id="DYxi66ldMMoiw-QNB0oQ-6" value="redis" style="strokeWidth=2;html=1;shape=mxgraph.flowchart.database;whiteSpace=wrap;" vertex="1" parent="A_0122c7jLnbs0eLwg73-1">
          <mxGeometry x="80" y="140" width="60" height="60" as="geometry" />
        </mxCell>
        <mxCell id="DYxi66ldMMoiw-QNB0oQ-7" value="" style="endArrow=none;dashed=1;html=1;dashPattern=1 3;strokeWidth=2;exitX=0.5;exitY=0;exitDx=0;exitDy=0;" edge="1" parent="A_0122c7jLnbs0eLwg73-1" source="rL_iFx3MPXWAjD2izpBM-0">
          <mxGeometry width="50" height="50" relative="1" as="geometry">
            <mxPoint x="109.5" y="280" as="sourcePoint" />
            <mxPoint x="110" y="200" as="targetPoint" />
          </mxGeometry>
        </mxCell>
        <mxCell id="EckiXAOUwW9-11eRYovG-0" value="es" style="strokeWidth=2;html=1;shape=mxgraph.flowchart.multi-document;whiteSpace=wrap;" vertex="1" parent="A_0122c7jLnbs0eLwg73-1">
          <mxGeometry x="402" y="640" width="88" height="60" as="geometry" />
        </mxCell>
        <mxCell id="EckiXAOUwW9-11eRYovG-5" value="" style="edgeStyle=orthogonalEdgeStyle;rounded=0;orthogonalLoop=1;jettySize=auto;html=1;" edge="1" parent="A_0122c7jLnbs0eLwg73-1" source="EckiXAOUwW9-11eRYovG-1" target="EckiXAOUwW9-11eRYovG-4">
          <mxGeometry relative="1" as="geometry" />
        </mxCell>
        <mxCell id="EckiXAOUwW9-11eRYovG-1" value="clue" style="strokeWidth=2;html=1;shape=mxgraph.flowchart.direct_data;whiteSpace=wrap;" vertex="1" parent="A_0122c7jLnbs0eLwg73-1">
          <mxGeometry x="230" y="250" width="100" height="60" as="geometry" />
        </mxCell>
        <mxCell id="EckiXAOUwW9-11eRYovG-3" value="es" style="strokeWidth=2;html=1;shape=mxgraph.flowchart.multi-document;whiteSpace=wrap;" vertex="1" parent="A_0122c7jLnbs0eLwg73-1">
          <mxGeometry x="396" y="50" width="88" height="60" as="geometry" />
        </mxCell>
        <mxCell id="EckiXAOUwW9-11eRYovG-4" value="线索批处理服务" style="rounded=1;whiteSpace=wrap;html=1;absoluteArcSize=1;arcSize=14;strokeWidth=2;" vertex="1" parent="A_0122c7jLnbs0eLwg73-1">
          <mxGeometry x="396" y="230" width="100" height="100" as="geometry" />
        </mxCell>
        <mxCell id="EckiXAOUwW9-11eRYovG-7" value="" style="endArrow=none;dashed=1;html=1;dashPattern=1 3;strokeWidth=2;entryX=0.5;entryY=0.88;entryDx=0;entryDy=0;entryPerimeter=0;exitX=0.44;exitY=0;exitDx=0;exitDy=0;exitPerimeter=0;" edge="1" parent="A_0122c7jLnbs0eLwg73-1" source="EckiXAOUwW9-11eRYovG-4" target="EckiXAOUwW9-11eRYovG-3">
          <mxGeometry width="50" height="50" relative="1" as="geometry">
            <mxPoint x="300" y="180" as="sourcePoint" />
            <mxPoint x="350" y="130" as="targetPoint" />
          </mxGeometry>
        </mxCell>
        <mxCell id="EckiXAOUwW9-11eRYovG-8" value="" style="endArrow=none;dashed=1;html=1;dashPattern=1 3;strokeWidth=2;entryX=0.5;entryY=1;entryDx=0;entryDy=0;exitX=0.5;exitY=0.117;exitDx=0;exitDy=0;exitPerimeter=0;" edge="1" parent="A_0122c7jLnbs0eLwg73-1" source="EckiXAOUwW9-11eRYovG-0" target="rL_iFx3MPXWAjD2izpBM-1">
          <mxGeometry width="50" height="50" relative="1" as="geometry">
            <mxPoint x="320" y="630" as="sourcePoint" />
            <mxPoint x="370" y="580" as="targetPoint" />
          </mxGeometry>
        </mxCell>
        <mxCell id="EckiXAOUwW9-11eRYovG-9" value="&lt;h1&gt;seqId分配&lt;/h1&gt;&lt;p&gt;在线索上传时，进行seqId标注&lt;/p&gt;" style="text;html=1;strokeColor=none;fillColor=#FF0000;spacing=5;spacingTop=-20;whiteSpace=wrap;overflow=hidden;rounded=0;" vertex="1" parent="A_0122c7jLnbs0eLwg73-1">
          <mxGeometry x="480" y="120" width="190" height="70" as="geometry" />
        </mxCell>
        <mxCell id="EckiXAOUwW9-11eRYovG-10" value="&lt;h1&gt;seqId取数&lt;/h1&gt;&lt;p&gt;短信批量发送时，对短信&lt;/p&gt;" style="text;html=1;strokeColor=none;fillColor=#FF0000;spacing=5;spacingTop=-20;whiteSpace=wrap;overflow=hidden;rounded=0;" vertex="1" parent="A_0122c7jLnbs0eLwg73-1">
          <mxGeometry x="520" y="370" width="190" height="70" as="geometry" />
        </mxCell>
        <mxCell id="EckiXAOUwW9-11eRYovG-11" value="" style="endArrow=none;dashed=1;html=1;dashPattern=1 3;strokeWidth=2;entryX=0;entryY=0.5;entryDx=0;entryDy=0;exitX=1;exitY=0.333;exitDx=0;exitDy=0;exitPerimeter=0;" edge="1" parent="A_0122c7jLnbs0eLwg73-1" source="EckiXAOUwW9-11eRYovG-0" target="DYxi66ldMMoiw-QNB0oQ-0">
          <mxGeometry width="50" height="50" relative="1" as="geometry">
            <mxPoint x="510" y="710" as="sourcePoint" />
            <mxPoint x="560" y="660" as="targetPoint" />
          </mxGeometry>
        </mxCell>
        <mxCell id="EckiXAOUwW9-11eRYovG-12" value="" style="verticalLabelPosition=bottom;verticalAlign=top;html=1;strokeWidth=2;shape=mxgraph.arrows2.arrow;dy=0.6;dx=40;notch=0;direction=west;" vertex="1" parent="A_0122c7jLnbs0eLwg73-1">
          <mxGeometry x="740" y="640" width="100" height="35" as="geometry" />
        </mxCell>
        <mxCell id="EckiXAOUwW9-11eRYovG-13" value="&lt;h1&gt;外部数据回流&lt;/h1&gt;&lt;p&gt;渠道回执数据etc&lt;/p&gt;" style="text;html=1;strokeColor=none;fillColor=none;spacing=5;spacingTop=-20;whiteSpace=wrap;overflow=hidden;rounded=0;" vertex="1" parent="A_0122c7jLnbs0eLwg73-1">
          <mxGeometry x="850" y="590" width="190" height="120" as="geometry" />
        </mxCell>
        <mxCell id="EckiXAOUwW9-11eRYovG-14" value="&lt;h1&gt;线索上传&lt;/h1&gt;&lt;div&gt;初始化线索包水位为有效线索数量&lt;/div&gt;" style="text;html=1;strokeColor=none;fillColor=#FF0000;spacing=5;spacingTop=-20;whiteSpace=wrap;overflow=hidden;rounded=0;" vertex="1" parent="A_0122c7jLnbs0eLwg73-1">
          <mxGeometry x="-170" y="290" width="190" height="70" as="geometry" />
        </mxCell>
        <mxCell id="EckiXAOUwW9-11eRYovG-15" value="&lt;h1&gt;线索包重置&lt;/h1&gt;&lt;div&gt;重置线索包水位为有效线索数量&lt;/div&gt;" style="text;html=1;strokeColor=none;fillColor=#FF0000;spacing=5;spacingTop=-20;whiteSpace=wrap;overflow=hidden;rounded=0;" vertex="1" parent="A_0122c7jLnbs0eLwg73-1">
          <mxGeometry x="-170" y="370" width="190" height="70" as="geometry" />
        </mxCell>
        <mxCell id="EckiXAOUwW9-11eRYovG-16" value="&lt;h1&gt;营销任务创建&lt;/h1&gt;&lt;div&gt;标注任务类型为营销任务&lt;/div&gt;" style="text;html=1;strokeColor=none;fillColor=#FF0000;spacing=5;spacingTop=-20;whiteSpace=wrap;overflow=hidden;rounded=0;" vertex="1" parent="A_0122c7jLnbs0eLwg73-1">
          <mxGeometry x="-170" y="440" width="190" height="70" as="geometry" />
        </mxCell>
        <mxCell id="EckiXAOUwW9-11eRYovG-17" value="定时任务处理服务" style="rounded=1;whiteSpace=wrap;html=1;absoluteArcSize=1;arcSize=14;strokeWidth=2;" vertex="1" parent="A_0122c7jLnbs0eLwg73-1">
          <mxGeometry x="60" y="-30" width="100" height="100" as="geometry" />
        </mxCell>
        <mxCell id="EckiXAOUwW9-11eRYovG-18" value="" style="endArrow=none;dashed=1;html=1;dashPattern=1 3;strokeWidth=2;entryX=0.5;entryY=1;entryDx=0;entryDy=0;exitX=0.5;exitY=0;exitDx=0;exitDy=0;exitPerimeter=0;" edge="1" parent="A_0122c7jLnbs0eLwg73-1" source="DYxi66ldMMoiw-QNB0oQ-6" target="EckiXAOUwW9-11eRYovG-17">
          <mxGeometry width="50" height="50" relative="1" as="geometry">
            <mxPoint x="-90" y="130" as="sourcePoint" />
            <mxPoint x="-40" y="80" as="targetPoint" />
          </mxGeometry>
        </mxCell>
        <mxCell id="EckiXAOUwW9-11eRYovG-19" value="" style="shape=flexArrow;endArrow=classic;html=1;" edge="1" parent="A_0122c7jLnbs0eLwg73-1">
          <mxGeometry width="50" height="50" relative="1" as="geometry">
            <mxPoint x="180" y="70" as="sourcePoint" />
            <mxPoint x="380" y="220" as="targetPoint" />
          </mxGeometry>
        </mxCell>
      </root>
    </mxGraphModel>
  </diagram>
  <diagram id="jrYY1kV_LxwjjcS4Hbrh" name="Page-3">
    <mxGraphModel dx="1389" dy="1971" grid="1" gridSize="10" guides="1" tooltips="1" connect="1" arrows="1" fold="1" page="1" pageScale="1" pageWidth="827" pageHeight="1169" math="0" shadow="0">
      <root>
        <mxCell id="xMeDIR_rZCD0GsQ6HXFr-0" />
        <mxCell id="xMeDIR_rZCD0GsQ6HXFr-1" parent="xMeDIR_rZCD0GsQ6HXFr-0" />
        <mxCell id="xMeDIR_rZCD0GsQ6HXFr-11" value="" style="edgeStyle=orthogonalEdgeStyle;rounded=0;orthogonalLoop=1;jettySize=auto;html=1;" edge="1" parent="xMeDIR_rZCD0GsQ6HXFr-1" source="xMeDIR_rZCD0GsQ6HXFr-2" target="xMeDIR_rZCD0GsQ6HXFr-8">
          <mxGeometry relative="1" as="geometry" />
        </mxCell>
        <mxCell id="xMeDIR_rZCD0GsQ6HXFr-2" value="" style="strokeWidth=2;html=1;shape=mxgraph.flowchart.start_1;whiteSpace=wrap;fillColor=none;" vertex="1" parent="xMeDIR_rZCD0GsQ6HXFr-1">
          <mxGeometry x="270" y="-10" width="100" height="60" as="geometry" />
        </mxCell>
        <mxCell id="xMeDIR_rZCD0GsQ6HXFr-3" value="" style="strokeWidth=2;html=1;shape=mxgraph.flowchart.terminator;whiteSpace=wrap;fillColor=none;" vertex="1" parent="xMeDIR_rZCD0GsQ6HXFr-1">
          <mxGeometry x="270" y="500" width="100" height="60" as="geometry" />
        </mxCell>
        <mxCell id="xMeDIR_rZCD0GsQ6HXFr-14" value="" style="edgeStyle=orthogonalEdgeStyle;rounded=0;orthogonalLoop=1;jettySize=auto;html=1;" edge="1" parent="xMeDIR_rZCD0GsQ6HXFr-1" source="xMeDIR_rZCD0GsQ6HXFr-6" target="xMeDIR_rZCD0GsQ6HXFr-10">
          <mxGeometry relative="1" as="geometry" />
        </mxCell>
        <mxCell id="xMeDIR_rZCD0GsQ6HXFr-6" value="入mysql" style="shape=process;whiteSpace=wrap;html=1;backgroundOutline=1;fillColor=none;" vertex="1" parent="xMeDIR_rZCD0GsQ6HXFr-1">
          <mxGeometry x="260" y="290" width="120" height="60" as="geometry" />
        </mxCell>
        <mxCell id="xMeDIR_rZCD0GsQ6HXFr-12" value="" style="edgeStyle=orthogonalEdgeStyle;rounded=0;orthogonalLoop=1;jettySize=auto;html=1;" edge="1" parent="xMeDIR_rZCD0GsQ6HXFr-1" source="xMeDIR_rZCD0GsQ6HXFr-8" target="xMeDIR_rZCD0GsQ6HXFr-9">
          <mxGeometry relative="1" as="geometry" />
        </mxCell>
        <mxCell id="xMeDIR_rZCD0GsQ6HXFr-8" value="&lt;span&gt;上传文件，选择行业，选择筛选条件&lt;/span&gt;" style="shape=parallelogram;perimeter=parallelogramPerimeter;whiteSpace=wrap;html=1;fixedSize=1;fillColor=none;" vertex="1" parent="xMeDIR_rZCD0GsQ6HXFr-1">
          <mxGeometry x="260" y="110" width="120" height="60" as="geometry" />
        </mxCell>
        <mxCell id="xMeDIR_rZCD0GsQ6HXFr-13" value="" style="edgeStyle=orthogonalEdgeStyle;rounded=0;orthogonalLoop=1;jettySize=auto;html=1;" edge="1" parent="xMeDIR_rZCD0GsQ6HXFr-1" source="xMeDIR_rZCD0GsQ6HXFr-9" target="xMeDIR_rZCD0GsQ6HXFr-6">
          <mxGeometry relative="1" as="geometry" />
        </mxCell>
        <mxCell id="xMeDIR_rZCD0GsQ6HXFr-9" value="生成文件路径，标记线索包状态为匹配中" style="rounded=0;whiteSpace=wrap;html=1;fillColor=none;" vertex="1" parent="xMeDIR_rZCD0GsQ6HXFr-1">
          <mxGeometry x="260" y="200" width="120" height="60" as="geometry" />
        </mxCell>
        <mxCell id="xMeDIR_rZCD0GsQ6HXFr-15" value="" style="edgeStyle=orthogonalEdgeStyle;rounded=0;orthogonalLoop=1;jettySize=auto;html=1;" edge="1" parent="xMeDIR_rZCD0GsQ6HXFr-1" source="xMeDIR_rZCD0GsQ6HXFr-10" target="xMeDIR_rZCD0GsQ6HXFr-3">
          <mxGeometry relative="1" as="geometry" />
        </mxCell>
        <mxCell id="xMeDIR_rZCD0GsQ6HXFr-10" value="发送包ID,匹配类型进kafka" style="shape=process;whiteSpace=wrap;html=1;backgroundOutline=1;fillColor=none;" vertex="1" parent="xMeDIR_rZCD0GsQ6HXFr-1">
          <mxGeometry x="260" y="390" width="120" height="60" as="geometry" />
        </mxCell>
        <mxCell id="xMeDIR_rZCD0GsQ6HXFr-24" value="" style="edgeStyle=orthogonalEdgeStyle;rounded=0;orthogonalLoop=1;jettySize=auto;html=1;" edge="1" parent="xMeDIR_rZCD0GsQ6HXFr-1" source="xMeDIR_rZCD0GsQ6HXFr-16" target="xMeDIR_rZCD0GsQ6HXFr-18">
          <mxGeometry relative="1" as="geometry" />
        </mxCell>
        <mxCell id="xMeDIR_rZCD0GsQ6HXFr-16" value="" style="strokeWidth=2;html=1;shape=mxgraph.flowchart.start_1;whiteSpace=wrap;fillColor=none;" vertex="1" parent="xMeDIR_rZCD0GsQ6HXFr-1">
          <mxGeometry x="645" y="-10" width="100" height="60" as="geometry" />
        </mxCell>
        <mxCell id="xMeDIR_rZCD0GsQ6HXFr-17" value="" style="strokeWidth=2;html=1;shape=mxgraph.flowchart.terminator;whiteSpace=wrap;fillColor=none;" vertex="1" parent="xMeDIR_rZCD0GsQ6HXFr-1">
          <mxGeometry x="645" y="584.5" width="100" height="60" as="geometry" />
        </mxCell>
        <mxCell id="xMeDIR_rZCD0GsQ6HXFr-25" value="" style="edgeStyle=orthogonalEdgeStyle;rounded=0;orthogonalLoop=1;jettySize=auto;html=1;" edge="1" parent="xMeDIR_rZCD0GsQ6HXFr-1" source="xMeDIR_rZCD0GsQ6HXFr-18" target="xMeDIR_rZCD0GsQ6HXFr-19">
          <mxGeometry relative="1" as="geometry" />
        </mxCell>
        <mxCell id="xMeDIR_rZCD0GsQ6HXFr-18" value="从kafka获取msgId,cluePkType,opType" style="shape=parallelogram;perimeter=parallelogramPerimeter;whiteSpace=wrap;html=1;fixedSize=1;fillColor=none;" vertex="1" parent="xMeDIR_rZCD0GsQ6HXFr-1">
          <mxGeometry x="635" y="100" width="120" height="60" as="geometry" />
        </mxCell>
        <mxCell id="xMeDIR_rZCD0GsQ6HXFr-32" value="是" style="edgeStyle=orthogonalEdgeStyle;rounded=0;orthogonalLoop=1;jettySize=auto;html=1;" edge="1" parent="xMeDIR_rZCD0GsQ6HXFr-1" source="xMeDIR_rZCD0GsQ6HXFr-19" target="xMeDIR_rZCD0GsQ6HXFr-21">
          <mxGeometry relative="1" as="geometry" />
        </mxCell>
        <mxCell id="xMeDIR_rZCD0GsQ6HXFr-33" style="edgeStyle=orthogonalEdgeStyle;rounded=0;orthogonalLoop=1;jettySize=auto;html=1;" edge="1" parent="xMeDIR_rZCD0GsQ6HXFr-1" source="xMeDIR_rZCD0GsQ6HXFr-19">
          <mxGeometry relative="1" as="geometry">
            <mxPoint x="860" y="300" as="targetPoint" />
          </mxGeometry>
        </mxCell>
        <mxCell id="xMeDIR_rZCD0GsQ6HXFr-36" value="否" style="edgeLabel;html=1;align=center;verticalAlign=middle;resizable=0;points=[];" vertex="1" connectable="0" parent="xMeDIR_rZCD0GsQ6HXFr-33">
          <mxGeometry x="0.0889" y="-21" relative="1" as="geometry">
            <mxPoint as="offset" />
          </mxGeometry>
        </mxCell>
        <mxCell id="xMeDIR_rZCD0GsQ6HXFr-19" value="cluePkType是固定类型&amp;amp;&amp;amp;opType是匹配操作" style="rhombus;whiteSpace=wrap;html=1;fillColor=none;" vertex="1" parent="xMeDIR_rZCD0GsQ6HXFr-1">
          <mxGeometry x="630" y="190" width="130" height="60" as="geometry" />
        </mxCell>
        <mxCell id="xMeDIR_rZCD0GsQ6HXFr-28" value="" style="edgeStyle=orthogonalEdgeStyle;rounded=0;orthogonalLoop=1;jettySize=auto;html=1;" edge="1" parent="xMeDIR_rZCD0GsQ6HXFr-1" source="xMeDIR_rZCD0GsQ6HXFr-20" target="xMeDIR_rZCD0GsQ6HXFr-23">
          <mxGeometry relative="1" as="geometry" />
        </mxCell>
        <mxCell id="xMeDIR_rZCD0GsQ6HXFr-20" value="从redis中获取seqId进行数据标注" style="rounded=0;whiteSpace=wrap;html=1;fillColor=none;" vertex="1" parent="xMeDIR_rZCD0GsQ6HXFr-1">
          <mxGeometry x="635" y="400" width="120" height="60" as="geometry" />
        </mxCell>
        <mxCell id="xMeDIR_rZCD0GsQ6HXFr-27" value="" style="edgeStyle=orthogonalEdgeStyle;rounded=0;orthogonalLoop=1;jettySize=auto;html=1;" edge="1" parent="xMeDIR_rZCD0GsQ6HXFr-1" source="xMeDIR_rZCD0GsQ6HXFr-21" target="xMeDIR_rZCD0GsQ6HXFr-20">
          <mxGeometry relative="1" as="geometry" />
        </mxCell>
        <mxCell id="xMeDIR_rZCD0GsQ6HXFr-21" value="批处理逻辑" style="rounded=0;whiteSpace=wrap;html=1;fillColor=none;" vertex="1" parent="xMeDIR_rZCD0GsQ6HXFr-1">
          <mxGeometry x="635" y="300" width="120" height="60" as="geometry" />
        </mxCell>
        <mxCell id="xMeDIR_rZCD0GsQ6HXFr-22" style="edgeStyle=orthogonalEdgeStyle;rounded=0;orthogonalLoop=1;jettySize=auto;html=1;exitX=0.5;exitY=1;exitDx=0;exitDy=0;" edge="1" parent="xMeDIR_rZCD0GsQ6HXFr-1" source="xMeDIR_rZCD0GsQ6HXFr-20" target="xMeDIR_rZCD0GsQ6HXFr-20">
          <mxGeometry relative="1" as="geometry" />
        </mxCell>
        <mxCell id="xMeDIR_rZCD0GsQ6HXFr-29" value="" style="edgeStyle=orthogonalEdgeStyle;rounded=0;orthogonalLoop=1;jettySize=auto;html=1;" edge="1" parent="xMeDIR_rZCD0GsQ6HXFr-1" source="xMeDIR_rZCD0GsQ6HXFr-23" target="xMeDIR_rZCD0GsQ6HXFr-17">
          <mxGeometry relative="1" as="geometry" />
        </mxCell>
        <mxCell id="xMeDIR_rZCD0GsQ6HXFr-23" value="入库es" style="rounded=0;whiteSpace=wrap;html=1;fillColor=none;" vertex="1" parent="xMeDIR_rZCD0GsQ6HXFr-1">
          <mxGeometry x="635" y="490" width="120" height="60" as="geometry" />
        </mxCell>
        <mxCell id="xMeDIR_rZCD0GsQ6HXFr-35" style="edgeStyle=orthogonalEdgeStyle;rounded=0;orthogonalLoop=1;jettySize=auto;html=1;entryX=1;entryY=0.5;entryDx=0;entryDy=0;entryPerimeter=0;" edge="1" parent="xMeDIR_rZCD0GsQ6HXFr-1" source="xMeDIR_rZCD0GsQ6HXFr-34" target="xMeDIR_rZCD0GsQ6HXFr-17">
          <mxGeometry relative="1" as="geometry" />
        </mxCell>
        <mxCell id="xMeDIR_rZCD0GsQ6HXFr-34" value="线索批处理默认逻辑" style="rounded=0;whiteSpace=wrap;html=1;fillColor=none;" vertex="1" parent="xMeDIR_rZCD0GsQ6HXFr-1">
          <mxGeometry x="820" y="300" width="120" height="60" as="geometry" />
        </mxCell>
      </root>
    </mxGraphModel>
  </diagram>
</mxfile>
